<?xml version="1.0" standalone="no"?><!DOCTYPE svg PUBLIC "-//W3C//DTD SVG 1.1//EN" "http://www.w3.org/Graphics/SVG/1.1/DTD/svg11.dtd"><svg t="1542015898374" class="icon" style="" viewBox="0 0 1024 1024" version="1.1" xmlns="http://www.w3.org/2000/svg" p-id="2801" xmlns:xlink="http://www.w3.org/1999/xlink" width="32" height="32"><defs><style type="text/css"></style></defs><path d="M912 681.2V835c0 12.8-4.4 23.8-13.4 32.7-9 9-19.9 13.4-32.7 13.4H158.1c-12.8 0-23.8-4.4-32.7-13.4-9-9-13.4-19.9-13.4-32.7V681.2c0-12.8 4.4-23.8 13.4-32.7 9-9 19.9-13.4 32.7-13.4h223.6l64.9 65.4c18.6 18 40.3 26.9 65.4 26.9 25.1 0 46.8-9 65.4-26.9l65.4-65.4H866c12.8 0 23.8 4.4 32.7 13.4 8.7 9.1 13.3 20 13.3 32.7zM755.8 407.7c5.5 13.1 3.2 24.4-6.8 33.7L533.6 656.8c-5.8 6.1-12.9 9.1-21.6 9.1-8.7 0-15.9-3-21.6-9.1L274.9 441.4c-9.9-9.3-12.2-20.5-6.8-33.7 5.5-12.5 14.9-18.7 28.4-18.7h123.1V173.6c0-8.3 3-15.6 9.1-21.6s13.2-9.1 21.6-9.1h123.1c8.3 0 15.6 3 21.6 9.1s9.1 13.3 9.1 21.6V389h123.2c13.5 0 23 6.2 28.5 18.7z m-37.6 402.9c6.1-6.1 9.1-13.3 9.1-21.6s-3-15.6-9.1-21.6-13.3-9.1-21.6-9.1-15.6 3-21.6 9.1-9.1 13.3-9.1 21.6 3 15.6 9.1 21.6 13.2 9.1 21.6 9.1c8.3 0.1 15.6-3 21.6-9.1z m123.1 0c6.1-6.1 9.1-13.3 9.1-21.6s-3-15.6-9.1-21.6-13.3-9.1-21.6-9.1-15.6 3-21.6 9.1-9.1 13.3-9.1 21.6 3 15.6 9.1 21.6 13.2 9.1 21.6 9.1c8.3 0.1 15.5-3 21.6-9.1z" p-id="2802" fill="#e6e6e6"></path></svg>