<?xml version="1.0" standalone="no"?><!DOCTYPE svg PUBLIC "-//W3C//DTD SVG 1.1//EN" "http://www.w3.org/Graphics/SVG/1.1/DTD/svg11.dtd"><svg t="1542018111666" class="icon" style="" viewBox="0 0 1024 1024" version="1.1" xmlns="http://www.w3.org/2000/svg" p-id="8167" xmlns:xlink="http://www.w3.org/1999/xlink" width="32" height="32"><defs><style type="text/css"></style></defs><path d="M916.823514 412.032194c-12.507872 0-22.648836 10.119475-22.720468 22.603811l0 0.069585c0 0.023536 0 0.023536 0 0.070608 0 0 0 0.023536 0 0.046049l0 402.968771c0 25.109887-20.354584 45.439912-45.437865 45.439912L414.133553 883.230929c-0.022513 0-0.022513 0-0.047072 0L166.98157 883.230929c-25.084305 0-45.438888-20.330024-45.438888-45.439912l0-657.709593c0-25.108864 20.354584-45.438888 45.438888-45.438888l439.051571 0c12.531408-0.022513 22.695908-10.188037 22.695908-22.719444 0-12.554944-10.1645-22.719444-22.695908-22.719444L162.438091 89.203648c-47.688115 0-86.334297 38.647205-86.334297 86.334297l0 222.395136c0 0.023536 0 0.070608 0 0.070608l0 444.332854c0 47.689139 38.647205 86.334297 86.334297 86.334297l690.77057 0c47.689139 0 86.335321-38.646182 86.335321-86.334297L939.543981 434.636005C939.471326 422.151669 929.330362 412.032194 916.823514 412.032194zM494.449787 703.160761l432.257841-432.223049c25.716708-25.694195 23.351847-69.938885-5.293563-98.537224l-40.825824-40.871873c-28.620851-28.64541-72.843028-31.03483-98.558713-5.340635L349.76964 558.493917 494.449787 703.160761zM814.232974 158.464081c9.768481-9.743922 26.5374-8.854669 37.406958 1.990331l40.847314 40.848337c10.844999 10.915607 11.757788 27.662013 1.991354 37.382399l-47.969525 47.968501-79.612199-80.853469L814.232974 158.464081zM812.571125 320.592622 491.193627 642.017192l-80.269162-80.245625 322.034461-322.032414L812.571125 320.592622zM349.558839 559.312562l-44.431955 162.819273c-1.944282 7.121188 0.094144 14.661931 5.245468 19.909445 5.223978 5.152347 12.789281 7.166213 19.885909 5.246491l162.831552-44.408419-33.330106-33.388435-105.726973 28.891004 28.832675-105.787348L349.558839 559.312562z" p-id="8168" fill="#2c2c2c"></path></svg>